<svg xmlns="http://www.w3.org/2000/svg" width="51" height="40" viewBox="0 0 51 40">
  <g id="Grupo_1" data-name="Grupo 1" transform="translate(-5600.532 963.063)">
    <path id="Uni贸n_29" data-name="Uni贸n 29" d="M16.495,38V32.594H11V27.188H5.5V21.782H0V16.217H5.5V10.812H11V5.406h5.5V0h5.66V5.565h-5.5v5.406h-5.5v5.247H49v5.565H11.158v5.247h5.5v5.406h5.5V38ZM5.66,21.623H11V16.376H5.66Z" transform="translate(5602.532 -961.063)" fill="#6500ff"/>
    <path id="Uni贸n_27" data-name="Uni贸n 27" d="M16.495,38V32.594H11V27.188H5.5V21.782H0V16.217H5.5V10.812H11V5.406h5.5V0h5.66V5.565h-5.5v5.406h-5.5v5.247H49v5.565H11.158v5.247h5.5v5.406h5.5V38ZM5.66,21.623H11V16.376H5.66Z" transform="translate(5600.532 -963.063)" fill="#ffc000"/>
  </g>
</svg>
